{"title":"Terror.Trap.2010.DvDRip.XviD.Ac3.Feel-Free","uid":5920974,"size":979411368,"categoryP":"video","categoryS":"movies","magnet":"?xt=urn:btih:0bfc73e3e850bba46df9342817727f9ac2229c8e&amp;dn=Terror.Trap.2010.DvDRip.XviD.Ac3.Feel-Free&amp;tr=udp%3A%2F%2Ftracker.openbittorrent.com%3A80&amp;tr=udp%3A%2F%2Fopen.demonii.com%3A1337&amp;tr=udp%3A%2F%2Ftracker.coppersurfer.tk%3A6969&amp;tr=udp%3A%2F%2Fexodus.desync.com%3A6969","seeders":0,"leechers":1,"uploader":"deffjam555","files":9,"time":1288419615,"description":"cover\n &lt;a href=&quot;\nhttp://img524.imageshack.us/img524/300/81a6057cee942a87aca89b9.jpg&quot; rel=&quot;nofollow&quot; target=&quot;_NEW&quot;&gt;\nhttp://img524.imageshack.us/img524/300/81a6057cee942a87aca89b9.jpg&lt;/a&gt;\n\nGenre:Comedy | Thriller\nLanguage:English\nIMDb:http://www.imdb.com/title/tt1444252/\nSource:DVD\n\nGeneral\nComplete name :Terror.Trap.2010.DvDRip.XviD.Ac3.Feel-Free\nFormat : AVI\nFormat/Info : Audio Video Interleave\nFile size : 934 MiB\nDuration : 1h 17mn\nOverall bit rate : 1 687 Kbps\nVideo #0\nCodec ID : XVID\nCodec ID/Hint : XviD\nDuration : 1h 17mn\nBit rate : 1 230 Kbps\nWidth : 720 pixels\nHeight : 384 pixels\nDisplay aspect ratio : 1.875\nFrame rate : 25.000 fps\nResolution : 24 bits\nColorimetry : 4:2:0\nScan type : Progressive\nBits/(Pixel*Frame) : 0.178\nStream size : 681 MiB (73%)\nWriting library : XviD 1.2.1 (UTC 2008-12-04)\nAudio #1\nID : 1\nFormat : AC-3\nFormat/Info : Audio Coding 3\nCodec ID : 2000\nDuration : 1h 17mn\nBit rate mode : Constant\nBit rate : 448 Kbps\nChannel(s) : 6 channels\nChannel positions : Front: L C R, Surround: L R, LFE\nSampling rate : 48.0 KHz\nStream size : 248 MiB (27%)\nAlignment : Split accross interleaves\nInterleave, duration : 40 ms (1.00 video frame)\nInterleave, preload duration : 500 ms\n\nPlot:\nDriving to a weekend getaway, a car breakdown strands young couple Don and Nancy (David James Elliot and Heather Marsden) while passing through a small...\n\nSCREENS\n &lt;a href=&quot;\nhttp://img576.imageshack.us/img576/8230/terrortrap2010dvdripxvi.jpg&quot; rel=&quot;nofollow&quot; target=&quot;_NEW&quot;&gt;\nhttp://img576.imageshack.us/img576/8230/terrortrap2010dvdripxvi.jpg&lt;/a&gt; &lt;a href=&quot;\nhttp://img80.imageshack.us/img80/8230/terrortrap2010dvdripxvi.jpg&quot; rel=&quot;nofollow&quot; target=&quot;_NEW&quot;&gt;\nhttp://img80.imageshack.us/img80/8230/terrortrap2010dvdripxvi.jpg&lt;/a&gt; &lt;a href=&quot;\nhttp://img153.imageshack.us/img153/8230/terrortrap2010dvdripxvi.jpg&quot; rel=&quot;nofollow&quot; target=&quot;_NEW&quot;&gt;\nhttp://img153.imageshack.us/img153/8230/terrortrap2010dvdripxvi.jpg&lt;/a&gt; &lt;a href=&quot;\nhttp://img522.imageshack.us/img522/8230/terrortrap2010dvdripxvi.jpg&quot; rel=&quot;nofollow&quot; target=&quot;_NEW&quot;&gt;\nhttp://img522.imageshack.us/img522/8230/terrortrap2010dvdripxvi.jpg&lt;/a&gt; &lt;a href=&quot;\nhttp://img576.imageshack.us/img576/2637/terrortrap2010dvdripxviq.jpg&quot; rel=&quot;nofollow&quot; target=&quot;_NEW&quot;&gt;\nhttp://img576.imageshack.us/img576/2637/terrortrap2010dvdripxviq.jpg&lt;/a&gt; &lt;a href=&quot;\nhttp://img543.imageshack.us/img543/8230/terrortrap2010dvdripxvi.jpg&quot; rel=&quot;nofollow&quot; target=&quot;_NEW&quot;&gt;\nhttp://img543.imageshack.us/img543/8230/terrortrap2010dvdripxvi.jpg&lt;/a&gt;","torrent":{"xt":"urn:btih:0bfc73e3e850bba46df9342817727f9ac2229c8e","amp;dn":"Terror.Trap.2010.DvDRip.XviD.Ac3.Feel-Free","amp;tr":["udp%3A%2F%2Ftracker.openbittorrent.com%3A80","udp%3A%2F%2Fopen.demonii.com%3A1337","udp%3A%2F%2Ftracker.coppersurfer.tk%3A6969","udp%3A%2F%2Fexodus.desync.com%3A6969"],"infoHash":"0bfc73e3e850bba46df9342817727f9ac2229c8e","infoHashBuffer":{"type":"Buffer","data":[11,252,115,227,232,80,187,164,109,249,52,40,23,114,127,154,194,34,156,142]},"announce":[],"urlList":[]}}